<?xml version="1.0" encoding="utf-8"?>
<!-- Generator: Adobe Illustrator 18.1.0, SVG Export Plug-In . SVG Version: 6.00 Build 0)  -->
<!DOCTYPE svg PUBLIC "-//W3C//DTD SVG 1.1//EN" "http://www.w3.org/Graphics/SVG/1.1/DTD/svg11.dtd">
<svg version="1.1" id="Layer_1" xmlns="http://www.w3.org/2000/svg" xmlns:xlink="http://www.w3.org/1999/xlink" x="0px" y="0px"
	 viewBox="0 0 80 80" enable-background="new 0 0 80 80" xml:space="preserve">
<g>
	<defs>
		<rect id="SVGID_1_" y="420" width="60" height="60"/>
	</defs>
	<clipPath id="SVGID_2_">
		<use xlink:href="#SVGID_1_"  overflow="visible"/>
	</clipPath>
	
		<path clip-path="url(#SVGID_2_)" fill="none" stroke="#1E1E1E" stroke-width="3" stroke-linecap="round" stroke-linejoin="round" d="
		M30,421.5c-15.7,0-28.5,12.8-28.5,28.5c0,15.7,12.8,28.5,28.5,28.5s28.5-12.8,28.5-28.5C58.5,434.3,45.7,421.5,30,421.5z"/>
</g>
<polyline fill="none" stroke="#1E1E1E" stroke-width="3" stroke-linecap="round" stroke-linejoin="round" points="31.2,459.8 
	40.1,450.6 31.2,441.4 "/>
<line fill="none" stroke="#1E1E1E" stroke-width="3" stroke-linecap="round" stroke-linejoin="round" x1="40" y1="450.6" x2="19.7" y2="450.6"/>
<g>
	<path fill="#1E1E1E" d="M40,11.5c15.7,0,28.5,12.8,28.5,28.5S55.7,68.5,40,68.5S11.5,55.7,11.5,40S24.3,11.5,40,11.5"/>
	<path fill="none" stroke="#1E1E1E" stroke-width="3" stroke-linecap="round" stroke-linejoin="round" d="M40,11.5
		c15.7,0,28.5,12.8,28.5,28.5S55.7,68.5,40,68.5S11.5,55.7,11.5,40S24.3,11.5,40,11.5z"/>
	<g>
		<polyline fill="none" stroke="#FFFFFF" stroke-width="3" stroke-linecap="round" stroke-linejoin="round" points="38.7,49.2 
			29.8,40 38.7,30.8 		"/>
		
			<line fill="none" stroke="#FFFFFF" stroke-width="3" stroke-linecap="round" stroke-linejoin="round" x1="29.9" y1="40" x2="50.2" y2="40"/>
	</g>
</g>
</svg>
